<svg width="255" height="46" viewBox="0 0 255 46" xmlns="http://www.w3.org/2000/svg" xmlns:xlink="http://www.w3.org/1999/xlink"><title>Page 1</title><defs><path id="a" d="M.95 21.012h193.956V.885H.949z"/></defs><g fill="none" fill-rule="evenodd"><path d="M.659 22.63C.659 10.184 11.052.098 23.87.098c12.823 0 23.211 10.086 23.211 22.534 0 12.447-10.388 22.54-23.211 22.54C11.052 45.17.66 35.077.66 22.63" fill="#EA2427"/><path d="M12.91 18.07c0-.813-.293-1.508-.877-2.08-.575-.582-1.275-.871-2.116-.871H6.934v2.95c0 .812.282 1.512.857 2.103a2.902 2.902 0 0 0 2.126.871c.841 0 1.541-.288 2.116-.87.584-.592.876-1.292.876-2.104M6.92 12.78v.382h2.998c1.41 0 2.62.48 3.622 1.438 1.013.955 1.522 2.109 1.522 3.47 0 1.36-.51 2.523-1.522 3.492C12.526 22.516 11.322 23 9.917 23c-1.4 0-2.605-.484-3.617-1.438-1.008-.969-1.507-2.133-1.507-3.493v-7.353c.58 0 1.083.206 1.491.616.424.397.635.886.635 1.448m16.756 8.221v-2.95c0-.812-.292-1.507-.877-2.089-.574-.592-1.274-.885-2.11-.885-.837 0-1.547.293-2.127.885a2.868 2.868 0 0 0-.861 2.09c0 .807.287 1.506.861 2.088.58.572 1.29.861 2.126.861h2.988zm2.15-2.95v4.907h-5.138c-1.4 0-2.61-.48-3.622-1.428-1.003-.96-1.506-2.118-1.506-3.479 0-1.36.503-2.524 1.506-3.478 1.013-.968 2.222-1.453 3.622-1.453s2.605.485 3.618 1.453c1.017.954 1.52 2.118 1.52 3.478zm.001 15.658H23.7v-9.686c.585 0 1.078.206 1.497.616.418.401.629.886.629 1.453v1.825h2.816a2.85 2.85 0 0 0 2.111-.886c.585-.587.69-.846.837-1.496 0 0 .095-1.512 2.166-1.512v.92c0 .787-.187 1.531-.56 2.225a4.963 4.963 0 0 1-1.516 1.737 4.906 4.906 0 0 1 1.517 1.742 4.57 4.57 0 0 1 .559 2.202v.86h-2.13v-.86c0-.803-.288-1.503-.873-2.09a2.85 2.85 0 0 0-2.11-.885h-2.817v3.835zm16.822-4.779c0 .802-.292 1.502-.877 2.089-.58.591-1.285.812-2.11.812-.837 0-1.547-.216-2.127-.798-.584-.592-.876-1.291-.876-2.103v-2.838c0-.567-.207-1.052-.63-1.453a2.042 2.042 0 0 0-1.496-.616v4.907c0 1.36.503 2.524 1.51 3.492 1.003.96 2.208 1.439 3.618 1.439 1.4 0 2.605-.48 3.607-1.439 1.008-.968 1.507-2.133 1.507-3.492v-4.907a2.09 2.09 0 0 0-1.507.616 1.95 1.95 0 0 0-.62 1.453v2.838z" fill="#F7FAFB"/><g transform="translate(60 13)"><path d="M4.541 12.752v4.572l4.031.013c1.982 0 3.231-.489 3.231-2.313 0-1.782-1.249-2.272-3.231-2.272h-4.03zm0-7.784v4.45h3.682c1.79 0 3.18-.395 3.18-2.246 0-1.796-1.416-2.204-3.192-2.204H4.54zM8.314 1.62c4.197 0 6.836 1.647 6.836 5.28 0 1.919-1.107 3.457-2.614 4.042a4.55 4.55 0 0 1 3.001 4.273c0 3.66-2.46 5.456-6.785 5.456H.95V1.62h7.365zM20.58 14.072c0 2.013 1.248 3.633 3.219 3.633 1.919 0 3.218-1.551 3.218-3.633s-1.3-3.633-3.218-3.633c-1.97 0-3.218 1.619-3.218 3.633zm9.616 6.6h-3.282v-1.456c-.81 1.06-2.02 1.796-3.733 1.796-3.438 0-6.039-2.98-6.039-6.94 0-3.96 2.601-6.94 6.04-6.94 1.712 0 2.908.735 3.732 1.81V7.485h3.282v13.187zm6.114-8.492h1.184l3.516-4.694h4.12l-4.92 6.205 4.957 6.98h-4.132l-3.592-5.333H36.31v5.334h-3.36V1.076h3.36zm21.907 2.871c0 4.165-2.781 5.96-5.896 5.96-3.13 0-5.91-1.795-5.91-5.96V7.485h3.36v7.254c0 2.11 1.094 2.966 2.55 2.966 1.44 0 2.55-.857 2.55-2.966V7.485h3.346v7.566zm21.833 5.62H66.585V1.621h13.364v3.483h-9.772v4.218h9.32v3.484h-9.32v4.382h9.875z" fill="#000"/><mask id="b" fill="#fff"><use xlink:href="#a"/></mask><path fill="#000" mask="url(#b)" d="M82.725 20.672h3.36V1.076h-3.36zm8.994-7.839h5.523c-.309-1.686-1.275-2.64-2.717-2.64-1.583 0-2.51 1.007-2.806 2.64m8.896 1.226c0 .408-.025.897-.064 1.196h-8.846c.36 1.906 1.623 2.736 3.207 2.736 1.081 0 2.252-.463 3.154-1.266l1.97 2.286c-1.417 1.374-3.219 2-5.317 2-3.825 0-6.476-2.748-6.476-6.899 0-4.15 2.574-6.98 6.307-6.98 3.593 0 6.053 2.817 6.065 6.927m12.988-4.437l-2.421 2.137c-.76-.858-1.57-1.321-2.665-1.321-1.737 0-3.128 1.443-3.128 3.634 0 2.205 1.378 3.632 3.115 3.632 1.081 0 2.009-.516 2.717-1.332l2.395 2.163c-1.173 1.592-2.924 2.477-5.008 2.477-3.979 0-6.644-2.94-6.644-6.94 0-3.987 2.665-6.94 6.644-6.94 2.084 0 3.849.898 4.995 2.49m11.252 1.021h-4.52v4.816c0 1.648.825 2.246 1.868 2.246.799 0 1.66-.422 2.343-.857l1.236 2.776c-1.095.789-2.357 1.388-4.133 1.388-3.09 0-4.674-1.85-4.674-5.266v-5.103h-2.407V7.485h2.407V3.566h3.36v3.92h4.52v3.157zm10.895-3.226l-.503 3.525c-.553-.258-1.35-.422-2.034-.422-1.558 0-2.626 1.007-2.626 2.967v7.184h-3.36V7.485h3.257v1.443c.784-1.239 1.982-1.796 3.515-1.796.72 0 1.288.109 1.75.285m3.913 6.655c0 2.136 1.415 3.633 3.309 3.633 1.892 0 3.321-1.497 3.321-3.633 0-2.137-1.43-3.634-3.321-3.634-1.894 0-3.31 1.497-3.31 3.634m10.069 0c0 3.974-2.871 6.94-6.76 6.94-3.875 0-6.733-2.966-6.733-6.94s2.858-6.94 6.734-6.94c3.888 0 6.759 2.966 6.759 6.94m13.348-1.797v8.396h-3.36v-7.253c0-1.904-.901-2.953-2.433-2.953-1.442 0-2.64.994-2.64 2.98v7.226h-3.36V7.485h3.271v1.552c.889-1.402 2.252-1.905 3.668-1.905 2.832 0 4.854 2.082 4.854 5.143m2.65 8.397h3.36V7.486h-3.36v13.186zm3.811-17.5c0 1.28-.94 2.259-2.15 2.259s-2.138-.98-2.138-2.259c0-1.28.927-2.287 2.138-2.287 1.21 0 2.15 1.007 2.15 2.287zm13.041 6.45l-2.422 2.137c-.76-.858-1.57-1.321-2.664-1.321-1.739 0-3.13 1.443-3.13 3.634 0 2.205 1.38 3.632 3.116 3.632 1.082 0 2.01-.516 2.717-1.332l2.395 2.163c-1.172 1.592-2.923 2.477-5.008 2.477-3.98 0-6.644-2.94-6.644-6.94 0-3.987 2.665-6.94 6.644-6.94 2.085 0 3.85.898 4.996 2.49m10.87 1.538c-.99-.517-2.575-1.062-3.978-1.075-1.274 0-1.918.476-1.918 1.198 0 .76.901.952 2.034 1.128l1.107.178c2.704.435 4.21 1.714 4.21 3.945 0 2.722-2.11 4.478-5.73 4.478-1.698 0-3.926-.34-5.547-1.552l1.326-2.694c1.068.749 2.368 1.293 4.248 1.293 1.558 0 2.305-.463 2.305-1.239 0-.639-.632-.993-2.074-1.21l-1.017-.15c-2.884-.422-4.313-1.756-4.313-4 0-2.71 1.983-4.315 5.265-4.315 1.997 0 3.555.395 5.216 1.253l-1.133 2.762z"/></g></g></svg>